<svg width="100" height="100" viewBox="0 0 100 100" fill="none" xmlns="http://www.w3.org/2000/svg">
<g clip-path="url(#clip0_204_1398)">
<rect width="100" height="100" fill="white"/>
<path d="M94 77.69H82C81.3303 77.6903 80.6723 77.5151 80.0915 77.1817C79.5107 76.8483 79.0275 76.3684 78.69 75.79L62.69 48.36C62.3651 47.8042 61.9279 47.3223 61.4063 46.945C60.8847 46.5677 60.2901 46.3033 59.6606 46.1687C59.031 46.0341 58.3803 46.0323 57.75 46.1634C57.1197 46.2945 56.5237 46.5556 56 46.93C55.0681 47.6411 54.4314 48.671 54.2118 49.8225C53.9922 50.9739 54.2052 52.1659 54.81 53.17L65.2 70.83C65.6042 71.528 65.8165 72.3205 65.8153 73.127C65.8141 73.9336 65.5994 74.7255 65.1932 75.4222C64.7869 76.119 64.2035 76.6958 63.5021 77.0941C62.8008 77.4924 62.0065 77.698 61.2 77.69H23.2C22.0292 77.6711 20.8927 78.0853 20.0087 78.8531C19.1246 79.6209 18.5553 80.6881 18.41 81.85C18.3472 82.4918 18.4194 83.1396 18.622 83.7517C18.8247 84.3639 19.1532 84.9268 19.5865 85.4044C20.0197 85.882 20.5482 86.2635 21.1378 86.5245C21.7274 86.7856 22.3652 86.9203 23.01 86.92H94.17C94.814 86.9189 95.4506 86.7832 96.039 86.5215C96.6275 86.2599 97.1547 85.8781 97.5869 85.4007C98.0191 84.9233 98.3467 84.3608 98.5488 83.7493C98.7508 83.1379 98.8227 82.4909 98.76 81.85C98.6153 80.6933 98.0503 79.6303 97.1725 78.8632C96.2948 78.0961 95.1656 77.6785 94 77.69V77.69Z" fill="#9596F5"/>
<path d="M52.38 22.45L36.69 49.83C36.1029 50.8286 35.9018 52.0077 36.1247 53.1445C36.3477 54.2813 36.9792 55.2971 37.9 56C38.4255 56.377 39.0242 56.6397 39.6575 56.7711C40.2907 56.9026 40.9445 56.9 41.5766 56.7634C42.2088 56.6268 42.8053 56.3592 43.3278 55.978C43.8502 55.5968 44.287 55.1103 44.61 54.55L54.86 36.65C55.2608 35.9542 55.8379 35.3763 56.533 34.9745C57.2282 34.5726 58.017 34.3611 58.82 34.3611C59.623 34.3611 60.4118 34.5726 61.107 34.9745C61.8022 35.3763 62.3792 35.9542 62.78 36.65L81.88 69.73C82.2862 70.4315 82.8694 71.0141 83.5714 71.4194C84.2733 71.8248 85.0694 72.0388 85.88 72.04C86.6894 72.0388 87.4843 71.825 88.1851 71.4199C88.8859 71.0149 89.468 70.4328 89.8731 69.7321C90.2781 69.0313 90.492 68.2364 90.4932 67.427C90.4944 66.6175 90.283 65.822 89.88 65.12L54.29 3.50001C53.9682 2.94107 53.5327 2.45588 53.0116 2.07581C52.4905 1.69573 51.8955 1.42921 51.265 1.2935C50.6345 1.15778 49.9825 1.15588 49.3512 1.28791C48.7199 1.41994 48.1233 1.68298 47.6 2.06C46.6661 2.76479 46.0266 3.79067 45.805 4.93945C45.5834 6.08824 45.7954 7.2784 46.4 8.28001L52.4 18.63C52.7313 19.2128 52.9038 19.8723 52.9003 20.5427C52.8967 21.213 52.7174 21.8707 52.38 22.45V22.45Z" fill="#9596F5"/>
<path d="M50.9 72.15C51.6357 72.1453 52.3597 71.965 53.0117 71.6241C53.6637 71.2831 54.2248 70.7914 54.6484 70.1898C55.0719 69.5882 55.3457 68.8941 55.4468 68.1654C55.548 67.4366 55.4737 66.6942 55.23 66C54.9087 65.1085 54.3165 64.3399 53.5364 63.8019C52.7563 63.2639 51.8275 62.9835 50.88 63V63H30.23C29.4238 63.0101 28.6293 62.8062 27.9275 62.4091C27.2258 62.0121 26.6419 61.4361 26.2353 60.7398C25.8287 60.0435 25.614 59.2519 25.6131 58.4456C25.6122 57.6393 25.825 56.8472 26.23 56.15L45.33 23.06C45.9413 21.9991 46.1062 20.7389 45.7883 19.5565C45.4704 18.374 44.6959 17.3663 43.635 16.755C42.5741 16.1437 41.3139 15.9788 40.1315 16.2967C38.949 16.6146 37.9413 17.3891 37.33 18.45L1.8 80.08C1.4973 80.6053 1.30103 81.1851 1.2224 81.7862C1.14376 82.3873 1.1843 82.9981 1.34169 83.5835C1.49909 84.169 1.77026 84.7178 2.13972 85.1984C2.50919 85.6791 2.96971 86.0823 3.495 86.385C4.02029 86.6877 4.60005 86.884 5.20119 86.9626C5.80233 87.0412 6.41307 87.0007 6.99855 86.8433C7.58402 86.6859 8.13276 86.4147 8.61343 86.0453C9.0941 85.6758 9.4973 85.2153 9.8 84.69L15.88 74.17C16.2138 73.5898 16.6946 73.1078 17.2739 72.7725C17.8532 72.4372 18.5106 72.2604 19.18 72.26L50.9 72.15Z" fill="#9596F5"/>
</g>
<defs>
<clipPath id="clip0_204_1398">
<rect width="100" height="100" fill="white"/>
</clipPath>
</defs>
</svg>
